<?xml version="1.0" encoding="UTF-8"?>
<svg width="100px" height="64px" viewBox="0 0 108 64" version="1.1" xmlns="http://www.w3.org/2000/svg" xmlns:xlink="http://www.w3.org/1999/xlink">
	<path fill="black" d="M98.5 64h-89C4.3 64 0 59.7 0 54.5v-45C0 4.3 4.3 0 9.5 0h89c5.2 0 9.5 4.3 9.5 9.5v45c0 5.2-4.3 9.5-9.5 9.5zM9.5 3C5.9 3 3 5.9 3 9.5v45C3 58.1 5.9 61 9.5 61h89c3.6 0 6.5-2.9 6.5-6.5v-45c0-3.6-2.9-6.5-6.5-6.5h-89z"></path>
	<path fill="black" d="M45.8 28.9V22l-3.7 5.6-6.1-2.2 3.8 5.6-3.7 5.6 6-2.2 3.7 5.6v-6.9L52 31z"></path>
	<path  fill="black" d="M58.9 16H46l15.1 16L46 48h12.9L74 32z"></path>
</svg>